<svg xmlns="http://www.w3.org/2000/svg" width="1em" height="1em" viewBox="0 0 24 24"><path fill="#6b7280" d="M11.025 21v-2.15q-1.325-.3-2.287-1.15q-.963-.85-1.413-2.4l1.85-.75q.375 1.2 1.113 1.825q.737.625 1.937.625q1.025 0 1.738-.462q.712-.463.712-1.438q0-.875-.55-1.388q-.55-.512-2.55-1.162q-2.15-.675-2.95-1.612q-.8-.938-.8-2.288q0-1.625 1.05-2.525q1.05-.9 2.15-1.025V3h2v2.1q1.25.2 2.063.912q.812.713 1.187 1.738l-1.85.8q-.3-.8-.85-1.2q-.55-.4-1.5-.4q-1.1 0-1.675.488q-.575.487-.575 1.212q0 .825.75 1.3q.75.475 2.6 1q1.725.5 2.613 1.587q.887 1.088.887 2.513q0 1.775-1.05 2.7q-1.05.925-2.6 1.15V21Z"/></svg>